<svg width="0" height="0" class="hidden">
    <symbol xmlns="http://www.w3.org/2000/svg" viewBox="0 0 554 444" id="menu">
    <path d="M456.5 110h-357C92 110 86 103.9 86 96.5v-22C86 67.1 92.1 61 99.5 61h356.9c7.5 0 13.5 6.1 13.5 13.5v21.9c.1 7.5-6 13.6-13.4 13.6zm0 136.5h-357C92 246.5 86 240.4 86 233v-22c0-7.5 6.1-13.5 13.5-13.5h356.9c7.5 0 13.5 6.1 13.5 13.5v22c.1 7.4-6 13.5-13.4 13.5zm0 136.5h-357C92 383 86 376.9 86 369.5v-21.9c0-7.5 6.1-13.5 13.5-13.5h356.9c7.5 0 13.5 6.1 13.5 13.5v21.9c.1 7.4-6 13.5-13.4 13.5z"></path>
  </symbol>
    <symbol xmlns="http://www.w3.org/2000/svg" viewBox="0 0 51 51" id="chevron">
    <circle cx="25.5" cy="25.5" r="25.5" fill="#393939"></circle>
    <rect x="24.4" y="27.9" width="1.6" height="15.24" rx=".8" transform="rotate(-39 11.114 37.674)"></rect>
    <rect x="33.3" y="27.9" width="1.6" height="15.24" rx=".8" transform="rotate(37.3 44.444 24.605)"></rect>
  </symbol>
    <symbol xmlns="http://www.w3.org/2000/svg" viewBox="0 0 32 32" id="logo">
    <path d="M16.6 6.5c-1.3 0-2.4 1.2-2.3 2.6v11.2c-1.7-.1-2.6-1.7-3.1-3.3-.4-1.4-1.7-2.4-3.1-2.4h-.3c-.5 0-.9.5-.9 1l1.7 1.2c.8 3.2 3 5.7 5.7 6.3v2h-1.1c-.7 0-1.3.3-1.8.8-.5.6-.7 1.3-.7 2h9.9c.1-1.5-1.1-2.8-2.5-2.9H17v-2c2.8-.6 5-3.1 5.7-6.3l1.7-1.2c0-.5-.4-1-.9-1h-.3c-1.4 0-2.7 1-3.1 2.4-.5 1.5-1.4 3.3-3.1 3.3V6.4l-.4.1z"></path>
    <path d="M10.7 2.3C9.2 3.9 8.2 5.8 8 8h-.2C3.5 8 0 12 0 17s3.5 9 7.8 9v-2.8h-.1c-2.9 0-5.3-2.7-5.3-6.2s2.4-6.2 5.4-6.2H8c.4 0 .8.1 1.2.2.5.1.9-.1 1.1-.6 0-.1.1-.2 0-.3-.1-.2-.1-.5-.1-.8s0-.5.1-.8c.4-3 2.6-5.4 5.3-5.4 2.7 0 4.9 2.3 5.3 5.3.1.3.1.5.1.8v.8c-.1.5.3.9.8 1h.4c.4-.1.8-.2 1.2-.2h.1c2.9 0 5.3 2.7 5.3 6.2s-2.4 6.1-5.3 6.2V26c4.3 0 7.7-4 7.7-9s-3.5-9-7.8-9h-.1c-.2-2-1.2-4-2.7-5.5-2.7-2.9-7.1-2.9-9.9-.2"></path>
  </symbol>
   <symbol xmlns="http://www.w3.org/2000/svg" viewBox="0 0 324.88 324.88" id="times-thin">
    <rect x="57.93" y="190.73" width="430.94" height="57.1" rx="24.41" transform="rotate(45 286.534 56.916)"></rect>
    <rect x="57.93" y="190.73" width="430.94" height="57.1" rx="24.41" transform="rotate(135 229.689 167.877)"></rect>
  </symbol>
</svg>