<svg width="0" height="0" class="hidden">
    <symbol xmlns="http://www.w3.org/2000/svg" viewBox="0 0 554 444" id="menu">
    <path d="M456.5 110h-357C92 110 86 103.9 86 96.5v-22C86 67.1 92.1 61 99.5 61h356.9c7.5 0 13.5 6.1 13.5 13.5v21.9c.1 7.5-6 13.6-13.4 13.6zm0 136.5h-357C92 246.5 86 240.4 86 233v-22c0-7.5 6.1-13.5 13.5-13.5h356.9c7.5 0 13.5 6.1 13.5 13.5v22c.1 7.4-6 13.5-13.4 13.5zm0 136.5h-357C92 383 86 376.9 86 369.5v-21.9c0-7.5 6.1-13.5 13.5-13.5h356.9c7.5 0 13.5 6.1 13.5 13.5v21.9c.1 7.4-6 13.5-13.4 13.5z"></path>
  </symbol>
    <symbol xmlns="http://www.w3.org/2000/svg" viewBox="0 0 51 51" id="chevron">
    <circle cx="25.5" cy="25.5" r="25.5" fill="#393939"></circle>
    <rect x="24.4" y="27.9" width="1.6" height="15.24" rx=".8" transform="rotate(-39 11.114 37.674)"></rect>
    <rect x="33.3" y="27.9" width="1.6" height="15.24" rx=".8" transform="rotate(37.3 44.444 24.605)"></rect>
  </symbol>
  <symbol xmlns="http://www.w3.org/2000/svg" viewBox="0 0 626 523" id="family">
    <path d="M347.1 331.5h-69.7c-12.4 0-22.4-10-22.4-22.4v-69.7c0-12.4 10-22.4 22.4-22.4h69.7c12.4 0 22.4 10 22.4 22.4v69.7c0 12.4-10 22.4-22.4 22.4z"></path>
    <path d="M132.2 214.6l1.6 225.8c.1 14.2 11.6 25.7 25.8 25.8 101.7.6 203.4 1.1 305.1 1.7 14.5.1 26.2-11.6 26.3-26.1l.9-356.6c0-.7-.5-1.2-1.2-1.2h-79.6c-.7 0-1.2.5-1.2 1.2V136"></path>
    <path d="M305.4 41.2L67.6 249c-4.2 3.6-4.6 10-1 14.1l7.5 8.6c3.6 4.2 10 4.6 14.1 1L326.1 64.9c4.2-3.6 4.6-10 1-14.1l-7.5-8.6c-3.7-4.2-10.1-4.7-14.2-1z"></path>
    <path d="M321.3 43.6L559 251.5c4.2 3.6 4.6 10 .9 14.1l-7.3 8.4c-3.6 4.2-10 4.6-14.1.9L300.8 67.1c-4.2-3.6-4.6-10-.9-14.1l7.3-8.4c3.6-4.2 9.9-4.6 14.1-1z"></path>
  </symbol>
  <symbol xmlns="http://www.w3.org/2000/svg" viewBox="0 0 630 519" id="people">
    <circle cx="203.9" cy="160.2" r="82.2"></circle>
    <path d="M205.5 300.5c-48.1.2-57.3-20.6-89.8-11.1-37.6 10.9-52.5 41.6-55.6 47.9-11 22.1-9.1 55.6-7.8 71.8 1.2 15.1 6.9 24.1 22 24.2l251.9 2.2c15.8.1 28.8-9.8 29.4-25.6.6-16.4 3.2-45.1-5.6-67.5-9.4-24-24-41.1-50.5-48.8-49.1-14.3-43.4 6.6-94 6.9z"></path>
    <circle cx="450.4" cy="175.2" r="67.1"></circle>
    <path d="M568.3 333.2c-7.7-19.6-17.4-29.8-38.1-37-29.8-10.3-50.7.2-76 2.7-33.7 3.3-48.1-15.1-77.1-5.2-4.2 1.4-8.2 3.4-11.9 5.6.3.5.7 1 1 1.6 5 8.1 22.1 37.2 25 79 .7 10.2.5 19.5-.3 28l157.9 1.4c12.9.1 23.6-8 24.1-20.9.5-13.4 2.5-36.9-4.6-55.2z"></path>
  </symbol>
  <symbol xmlns="http://www.w3.org/2000/svg" viewBox="0 0 626 517" id="person">
    <circle cx="311.6" cy="147" r="96.1"></circle>
    <path d="M312 312c-56.2.2-67-24.1-105-13-43.9 12.8-61.3 48.6-65 56-12.9 25.8-10.7 58-9.1 76.9 1.4 17.6 8.1 28.2 25.8 28.3l294.5 2.5c18.5.2 33.7-11.4 34.4-29.9.7-19.2 3.7-45.8-6.5-71.8-11-28-28-48-59-57-57.6-16.7-50.9 7.7-110.1 8z"></path>
  </symbol>
</svg>