<svg width="0" height="0" class="hidden">
    <symbol xmlns="http://www.w3.org/2000/svg" viewBox="0 0 554 444" id="menu">
    <path d="M456.5 110h-357C92 110 86 103.9 86 96.5v-22C86 67.1 92.1 61 99.5 61h356.9c7.5 0 13.5 6.1 13.5 13.5v21.9c.1 7.5-6 13.6-13.4 13.6zm0 136.5h-357C92 246.5 86 240.4 86 233v-22c0-7.5 6.1-13.5 13.5-13.5h356.9c7.5 0 13.5 6.1 13.5 13.5v22c.1 7.4-6 13.5-13.4 13.5zm0 136.5h-357C92 383 86 376.9 86 369.5v-21.9c0-7.5 6.1-13.5 13.5-13.5h356.9c7.5 0 13.5 6.1 13.5 13.5v21.9c.1 7.4-6 13.5-13.4 13.5z"></path>
  </symbol>
    <symbol xmlns="http://www.w3.org/2000/svg" viewBox="0 0 51 51" id="chevron">
    <circle cx="25.5" cy="25.5" r="25.5" fill="#393939"></circle>
    <rect x="24.4" y="27.9" width="1.6" height="15.24" rx=".8" transform="rotate(-39 11.114 37.674)"></rect>
    <rect x="33.3" y="27.9" width="1.6" height="15.24" rx=".8" transform="rotate(37.3 44.444 24.605)"></rect>
  </symbol>
</svg>